<svg xmlns="http://www.w3.org/2000/svg" viewBox="0 0 220.04 125.21"><defs><style>.cls-1{fill:#232323;}.cls-2{fill:#fff;stroke:#232323;stroke-miterlimit:10;}</style></defs><g id="레이어_2" data-name="레이어 2"><g id="레이어_1-2" data-name="레이어 1"><circle class="cls-1" cx="110.02" cy="33.29" r="25"/><circle class="cls-1" cx="186.74" cy="33.29" r="25"/><path class="cls-1" d="M33.29,1A32.29,32.29,0,1,1,1,33.29,32.33,32.33,0,0,1,33.29,1m0-1A33.29,33.29,0,1,0,66.58,33.29,33.3,33.3,0,0,0,33.29,0Z"/><path class="cls-1" d="M186.74,1a32.29,32.29,0,1,1-32.29,32.29A32.33,32.33,0,0,1,186.74,1m0-1A33.29,33.29,0,1,0,220,33.29,33.3,33.3,0,0,0,186.74,0Z"/><line class="cls-2" x1="33.29" y1="33.29" x2="186.74" y2="33.29"/><path class="cls-1" d="M.41,96H10.92c7.63,0,11.56,1.57,11.56,7.1,0,2.74-1.64,5-5.57,5.56,4.07.5,6,3.17,6,6.24,0,5.53-4.14,7.41-12,7.41H.41ZM11,107.74c3.35,0,4.39-.89,4.39-4.63,0-4-1.36-4.78-4.46-4.78H7.29v9.41ZM11.1,120c3.14,0,4.6-.79,4.6-5,0-3.67-1.07-5.1-4.49-5.1H7.29V120Z"/><path class="cls-1" d="M26.5,96h7.17v24H44.58v2.31H26.5Z"/><path class="cls-1" d="M47.07,96H66.58v2.32H54.24v9.38H65.15V110H54.24v10H66.65v2.31H47.07Z"/><path class="cls-1" d="M72.71,105v17.32H70V96h4.35l14.94,16.3V96H92v26.31H88.07Z"/><path class="cls-1" d="M96.42,96h11.33c8.56,0,12.59,4.89,12.59,13.16s-4,13.15-12.59,13.15H96.42Zm10.16,24c4.17,0,6.34-1.68,6.34-10.84s-2.17-10.84-6.34-10.84H103.4V120Z"/><path class="cls-1" d="M124,96h19.5v2.32H131.14v9.38h10.91V110H131.14v10h12.41v2.31H124Z"/><path class="cls-1" d="M154.42,96h6.31l9.74,26.31h-7.42l-2.6-7.09H150.11l-2.5,7.09H145ZM150.93,113h8.7l-4.39-12.16Z"/><path class="cls-1" d="M181.06,122.58a57,57,0,0,1-9.21-.79v-2.1c2.86.28,5.39.46,7.88.46,4.71,0,6.78-1.07,6.78-3.82a2.91,2.91,0,0,0-1.57-2.81,20.78,20.78,0,0,0-4.92-1.71,14.64,14.64,0,0,1-5.92-2.75,6.66,6.66,0,0,1-2.07-5.31c0-5.63,4-7.49,8.92-7.88V93.09h2.67v2.67a49.48,49.48,0,0,1,7.67.75v2.1a56.52,56.52,0,0,0-6.56-.42c-3.89,0-6.1.85-6.1,3.56a2.88,2.88,0,0,0,1.43,2.75,18.93,18.93,0,0,0,4.53,1.57c2.78.78,4.88,1.49,6.31,2.67a6.42,6.42,0,0,1,2.17,5.31c0,5.67-4.46,7.88-9.34,8.38v2.78h-2.67Z"/><path class="cls-1" d="M203.59,113l-9.27-17h8.2l6.91,13.55L216.6,96h3l-8.88,16.69v9.62h-7.16Z"/></g></g></svg>